<?xml version="1.0" encoding="UTF-8"?>
<svg id="OBJECTS" xmlns="http://www.w3.org/2000/svg" version="1.1" viewBox="0 0 800 800">
  <!-- Generator: Adobe Illustrator 29.2.1, SVG Export Plug-In . SVG Version: 2.1.0 Build 116)  -->
  <defs>
    <style>
      .st0 {
        fill: #00f1ea;
      }

      .st1 {
        fill: #ff1352;
      }
    </style>
  </defs>
  <path class="st1" d="M751.6,216.7c-98.7,0-178.7-80-178.7-178.7h-134v518.8c0,60.3-48.9,109.2-109.2,109.2s-109.2-48.9-109.2-109.2,48.9-109.2,109.2-109.2,24.1,1.7,34.4,4.9v-136.5c-11.2-1.6-22.7-2.4-34.4-2.4-134.3,0-243.3,108.9-243.3,243.3s108.9,243.3,243.3,243.3,243.3-108.9,243.3-243.3v-274.6c48.7,39.7,110.9,63.6,178.7,63.6v-129.1Z"/>
  <path class="st0" d="M713.6,178.7c-98.7,0-178.7-80-178.7-178.7h-134v518.8c0,60.3-48.9,109.2-109.2,109.2s-109.2-48.9-109.2-109.2,48.9-109.2,109.2-109.2,24.1,1.7,34.4,4.9v-136.5c-11.2-1.6-22.7-2.4-34.4-2.4-134.3,0-243.3,108.9-243.3,243.3s108.9,243.3,243.3,243.3,243.3-108.9,243.3-243.3V244.2c48.7,39.7,110.9,63.6,178.7,63.6v-129.1Z"/>
  <path d="M713.6,212.6c-43.2-9.4-80.6-34.3-105.9-68.7-34.4-25.4-59.3-62.7-68.7-105.9h-100.1v518.8c0,60.3-48.9,109.2-109.2,109.2s-74.8-21.4-93.8-53.3c-31.9-19.1-53.3-53.9-53.3-93.8,0-60.3,48.9-109.2,109.2-109.2s24.1,1.7,34.4,4.9v-100.9c-132.7,1.9-239.7,110.1-239.7,243.2s20,110.3,53.3,152c41.6,33.4,94.5,53.3,152,53.3,134.3,0,243.3-108.9,243.3-243.3V244.2c48.7,39.7,110.9,63.6,178.7,63.6v-95.2Z"/>
</svg>