<?xml version="1.0" encoding="UTF-8"?>
<svg id="Layer_1" xmlns="http://www.w3.org/2000/svg" version="1.1" viewBox="0 0 504 504">
  <!-- Generator: Adobe Illustrator 29.2.1, SVG Export Plug-In . SVG Version: 2.1.0 Build 116)  -->
  <defs>
    <style>
      .st0 {
        fill: #ed2224;
      }
    </style>
  </defs>
  <path class="st0" d="M76.8,421.5c-20.4-2.3-58.5-10.8-67.4-54.3S.5,252.3.5,252.3c0,0,0-71.4,8.9-114.9s47-52,67.4-54.3,89-8.1,175.7-8.1c86.7,0,155.2,5.8,175.7,8.1s58.5,10.8,67.4,54.3c8.9,43.5,8.9,114.9,8.9,114.9,0,0,0,71.4-8.9,114.9-8.9,43.5-47,52-67.4,54.3-20.4,2.3-89,8.1-175.7,8.1-86.7,0-155.2-5.8-175.7-8.1ZM202.1,175.5v152.9l130.2-76.1-130.2-76.8Z"/>
</svg>