<?xml version="1.0" encoding="utf-8"?>
<!-- Generator: Adobe Illustrator 25.0.0, SVG Export Plug-In . SVG Version: 6.00 Build 0)  -->
<svg version="1.1" id="Layer_1" xmlns="http://www.w3.org/2000/svg" xmlns:xlink="http://www.w3.org/1999/xlink" x="0px" y="0px"
	 viewBox="0 0 25.79 26" style="enable-background:new 0 0 25.79 26;" xml:space="preserve">
<style type="text/css">
	.st0{fill:#0F0F0F;}
</style>
<g>
	<path class="st0" d="M14.73,21.39c-2.41,0-4.82,0-7.23,0c-0.63,0-1.2-0.18-1.65-0.63c-0.6-0.59-0.82-1.3-0.63-2.12
		c0.13-0.55,0.31-1.09,0.61-1.58c0.39-0.64,0.93-1.11,1.6-1.43c0.07-0.03,0.19-0.05,0.09-0.18c-0.52-0.7-0.85-1.5-1.18-2.29
		c-0.54-1.27-1.12-2.52-1.59-3.82C4.53,8.76,4.35,8.17,4.3,7.55c-0.08-0.99,0.36-2,1.43-2.49c0.15-0.07,0.2-0.13,0.14-0.3
		c-0.3-0.87-0.6-1.74-0.89-2.62c-0.13-0.39-0.36-0.58-0.8-0.59c-1.14-0.04-2.27,0-3.41-0.02C0.32,1.52-0.01,1.19,0,0.74
		c0.01-0.39,0.32-0.73,0.72-0.73c1.26,0,2.52-0.06,3.77,0.04C5.38,0.12,5.99,0.6,6.32,1.41c0.4,0.98,0.69,2,1.03,3
		C7.41,4.6,7.5,4.67,7.7,4.66c0.78-0.07,1.57-0.07,2.36-0.07c3.45,0,6.89-0.01,10.34,0.01c0.97,0,1.95,0.01,2.92,0.18
		c0.43,0.08,0.85,0.2,1.24,0.41c0.95,0.54,1.39,1.54,1.18,2.65c-0.15,0.8-0.5,1.54-0.88,2.25c-0.86,1.6-1.75,3.17-2.69,4.72
		c-0.27,0.45-0.58,0.86-0.98,1.2c-0.58,0.49-1.27,0.69-2.01,0.76c-0.6,0.06-1.2,0.04-1.8,0.04c-2.75,0-5.49,0-8.24,0
		c-1.15,0-1.95,0.59-2.29,1.68c-0.04,0.12-0.08,0.24-0.12,0.36c-0.19,0.54,0.14,1.02,0.74,1.02c1.83-0.02,3.66-0.01,5.49-0.01
		c2.98,0,5.95,0,8.93,0c0.11,0,0.22,0,0.32,0.02c0.43,0.06,0.68,0.37,0.67,0.79c-0.01,0.38-0.3,0.68-0.71,0.72
		c-0.08,0.01-0.16,0.01-0.24,0.01C19.53,21.39,17.13,21.39,14.73,21.39z M14.89,6.13C14.89,6.13,14.89,6.13,14.89,6.13
		c-0.28-0.01-0.57-0.01-0.85-0.01c-2.11,0.02-4.21-0.05-6.32,0.05C7.3,6.2,6.88,6.25,6.48,6.4C6.01,6.57,5.82,6.85,5.83,7.35
		c0,0.5,0.16,0.97,0.33,1.43c0.47,1.3,1.05,2.56,1.6,3.84c0.26,0.61,0.51,1.23,0.88,1.79c0.22,0.33,0.5,0.58,0.88,0.7
		c0.26,0.08,0.54,0.11,0.81,0.14c0.74,0.06,1.48,0.04,2.22,0.04c2.15-0.02,4.31,0.05,6.46-0.04c0.65-0.03,1.19-0.26,1.57-0.81
		c0.11-0.17,0.24-0.33,0.34-0.5c0.76-1.26,1.48-2.55,2.2-3.83c0.39-0.69,0.77-1.39,1.02-2.15c0.08-0.24,0.14-0.48,0.12-0.73
		c-0.04-0.48-0.37-0.71-0.79-0.83c-0.67-0.19-1.35-0.24-2.04-0.24C19.25,6.13,17.07,6.13,14.89,6.13z"/>
	<path class="st0" d="M19.83,24.44c0-0.86,0.7-1.56,1.56-1.54c0.84,0.01,1.54,0.71,1.54,1.56c0,0.83-0.71,1.55-1.55,1.55
		C20.53,26,19.83,25.3,19.83,24.44z"/>
	<path class="st0" d="M10.69,24.44c0.01,0.84-0.68,1.55-1.53,1.56c-0.83,0.01-1.55-0.7-1.56-1.53c-0.02-0.84,0.68-1.55,1.54-1.57
		C9.99,22.88,10.68,23.57,10.69,24.44z"/>
</g>
</svg>
