<?xml version="1.0" encoding="UTF-8"?>
<svg id="objects" xmlns="http://www.w3.org/2000/svg" version="1.1" xmlns:xlink="http://www.w3.org/1999/xlink" viewBox="0 0 546.3 546.3">
  <!-- Generator: Adobe Illustrator 29.2.1, SVG Export Plug-In . SVG Version: 2.1.0 Build 116)  -->
  <defs>
    <style>
      .st0 {
        fill: url(#radial-gradient);
      }

      .st1 {
        fill: url(#radial-gradient1);
      }

      .st2 {
        fill: url(#radial-gradient2);
      }
    </style>
    <radialGradient id="radial-gradient" cx="3.1" cy="599.3" fx="3.1" fy="599.3" r="781.2" gradientUnits="userSpaceOnUse">
      <stop offset="0" stop-color="#fec053"/>
      <stop offset=".3" stop-color="#f2203e"/>
      <stop offset=".6" stop-color="#b729a8"/>
      <stop offset="1" stop-color="#5342d6"/>
    </radialGradient>
    <radialGradient id="radial-gradient1" cx="3.1" cy="599.3" fx="3.1" fy="599.3" r="781.2" xlink:href="#radial-gradient"/>
    <radialGradient id="radial-gradient2" cx="3.1" cy="599.3" fx="3.1" fy="599.3" r="781.2" xlink:href="#radial-gradient"/>
  </defs>
  <path class="st0" d="M390.8,546.3h-235.3C69.7,546.3,0,476.5,0,390.8v-235.3C0,69.7,69.7,0,155.5,0h235.3C476.5,0,546.3,69.7,546.3,155.5v235.3c0,85.7-69.7,155.5-155.5,155.5ZM155.5,46.8c-59.9,0-108.7,48.7-108.7,108.6v235.3c0,59.9,48.7,108.7,108.7,108.7h235.3c59.9,0,108.7-48.7,108.7-108.7v-235.3c0-59.9-48.7-108.6-108.7-108.6h-235.3Z"/>
  <path class="st1" d="M273.1,413c-77.1,0-139.9-62.7-139.9-139.9s62.7-139.9,139.9-139.9,139.9,62.7,139.9,139.9-62.7,139.9-139.9,139.9ZM273.1,180.1c-51.3,0-93,41.7-93,93s41.7,93,93,93,93-41.7,93-93-41.7-93-93-93Z"/>
  <path class="st2" d="M452.6,125.3c0,18.6-15,33.6-33.6,33.6s-33.6-15-33.6-33.6,15-33.6,33.6-33.6,33.6,15,33.6,33.6Z"/>
</svg>